<?xml version="1.0" encoding="utf-8"?>
<!-- Generator: Adobe Illustrator 25.1.0, SVG Export Plug-In . SVG Version: 6.00 Build 0)  -->
<svg version="1.1" id="Layer_1" xmlns="http://www.w3.org/2000/svg" xmlns:xlink="http://www.w3.org/1999/xlink" x="0px" y="0px"
	 viewBox="0 0 600 234" style="enable-background:new 0 0 600 234;" xml:space="preserve">
<style type="text/css">
	.st0{fill-rule:evenodd;clip-rule:evenodd;fill:#E5DED5;}
	.st1{fill:#FF8964;}
	.st2{font-family:'Recoleta-Regular';}
	.st3{font-size:61.9936px;}
</style>
<g id="Page-1">
	<g id="Group-39" transform="translate(660.000000, 425.000000)">
		<g id="Group-18" transform="translate(-0.000000, 0.000000)">
			<path id="Fill-8" class="st0" d="M-189-423h-32.4c-3.3,0-4.9,1.4-4.9,4.2v0.8c0,1.6,0.9,3.3,2.8,5.2c1.9,1.9,3.5,3.9,4.9,6.1
				c1.4,2.2,1.6,4.8,0.7,7.5l-21.2,66.4l-17.6-66.4c-0.9-3.3-0.6-6,1-8.2c1.6-2.2,3.3-4.1,5.3-5.7c2-1.6,2.9-3.3,2.9-4.9v-0.8
				c0-2.8-1.6-4.2-4.9-4.2h-52.7c-3.3,0-4.9,1.4-4.9,4.2v0.8c0,2,2.1,4.9,6.2,8.6c4.1,3.8,6.6,7.2,7.5,10.2l4.1,12.7l-17.1,54.5
				l-24.5-67.2c-1-2.8-1-5.3,0.3-7.5c1.2-2.2,2.8-4.3,4.6-6.1c1.8-1.9,2.7-3.6,2.7-5.2v-0.8c0-2.8-1.6-4.2-4.9-4.2h-53.7
				c-3.3,0-4.9,1.4-4.9,4.2v0.8c0,2,1.8,4.7,5.5,8.1c3.7,3.4,6.3,7,7.8,10.7l45.7,106.6c1.6,3.7,3.4,6.3,5.4,7.9
				c2,1.6,5,2.4,8.9,2.4c6.4,0,10.8-3.7,13.1-11.1l20.4-63.6l20.4,64.4c2.1,6.9,6.9,10.3,14.5,10.3c7.2,0,12.1-3.7,14.7-11.1
				l36.5-105.8c1-3.2,2.6-5.9,4.8-8.3c2.2-2.4,4-4.3,5.5-5.7c1.5-1.5,2.3-3,2.3-4.8v-0.8C-184.1-421.6-185.7-423-189-423"/>
			<path id="Fill-10" class="st0" d="M-568-358c6.7-1.8,12-5.3,15.9-10.5c3.9-5.2,5.9-11.4,5.9-18.6c0-10.6-4.2-19.2-12.7-25.9
				c-8.5-6.7-21.4-10-38.6-10h-57.1c-3.3,0-4.9,1.4-4.9,4.2v0.8c0,1.7,1.3,4.4,4,8c2.7,3.6,4,7.2,4,10.8v93.1c0,3.6-1.3,7.2-4,10.8
				c-2.7,3.6-4,6.3-4,8v0.8c0,2.8,1.6,4.2,4.9,4.2h53.1c23.8,0,41.3-3.6,52.4-10.7c11.2-7.1,16.8-16.8,16.8-29.1
				c0-9.4-3.2-17.3-9.6-23.7C-548.3-352.2-557-356.3-568-358 M-621.2-404c-2.9,0-2.7-3.5,0-3.5h22.3h0.4l0,0
				c5.4,0.1,9.8,2.4,13.1,6.9c3.4,4.6,5.1,11,5.1,19.2c0,5.3-1.2,9.5-3.6,12.6c-2.4,3.1-5.6,4.7-9.5,4.7h-6.7c-3.5,0-6.3-1-8.4-3
				c-2.1-2-3.1-4.7-3.1-8.1v-11.9v-5.1v-0.3C-611.7-394.4-612.2-404-621.2-404 M-578.5-303c-2.6,3.5-5.9,5.3-10,5.3h-6.7
				c-5,0-9-1.8-12-5.4c-3-3.6-4.5-8.1-4.5-13.5v-32.3h4.1c10.1,0,18.1,3.5,24,10.5c5.9,7,8.9,14.4,8.9,22.2
				C-574.6-310.9-575.9-306.5-578.5-303"/>
			<path id="Fill-12" class="st0" d="M-61-321c-0.9-1.4-2.1-2.1-3.8-2.1h-2c-2.9,0-5.6,1.3-8.2,4c-2.6,2.6-4.8,5.6-6.6,8.8
				c-1.8,3.2-4.1,6.2-7,8.8c-2.9,2.6-5.9,4-9.2,4h-14.1c-4.6,0-7.9-1.6-9.9-4.8c-2-3.2-3-6.9-3-11.1v-32.5h16.7
				c2.6,0,4.9,0.8,6.9,2.5c2,1.7,3.4,3.5,4.4,5.5c1,2.1,2.1,3.9,3.4,5.6c1.3,1.7,2.6,2.5,3.9,2.5h2c2.7,0,4.1-1.7,4.1-5v-38.6
				c0-3.3-1.4-5-4.1-5h-2c-1.3,0-2.6,0.9-3.9,2.7c-1.3,1.8-2.5,3.7-3.4,5.8c-1,2.1-2.5,4.1-4.4,5.8c-2,1.8-4.2,2.7-6.9,2.7h-16.7
				v-30.9h0c0,0,0.4-11.7-9.5-11.7c-2.9,0-2.7-3.7,0-3.7c2.3,0,30.4,0,30.4,0c3.3,0,6.5,1.3,9.6,3.8c3.1,2.5,5.7,5.3,7.7,8.2
				c2,3,4.4,5.7,7.2,8.2c2.7,2.5,5.5,3.8,8.2,3.8h1.2c1.8,0,3.3-0.6,4.3-1.7c1-1.1,1.4-2.6,1.2-4.5l-4.7-26.6
				c-0.4-2.4-1.1-4.1-2.2-5.1c-1-1-2.7-1.5-5.1-1.5H-168c-3.3,0-4.9,1.4-4.9,4.2v0.8c0,1.7,1.3,4.4,4,8c2.7,3.6,4,7.2,4,10.8v93.1
				c0,3.6-1.3,7.2-4,10.8c-2.7,3.6-4,6.3-4,8v0.8c0,2.8,1.6,4.2,4.9,4.2h96.3c2.4,0,4.1-0.5,5.1-1.6c1-1.1,1.8-2.8,2.2-5.3l4.3-27.4
				C-59.9-318.2-60.2-319.7-61-321"/>
			<path id="Fill-14" class="st0" d="M-451.7-425c-7.5,0-14.5,0.9-21,2.7c-1.4,0.4-2.1,1.8-1.6,3.2l0,0c0.4,1.1,1.5,1.8,2.7,1.6
				c1-0.1,2-0.2,3.1-0.2c7.5,0,15.2,6.3,23.2,18.9c7.9,12.6,14.4,27,19.3,43.3c4.9,16.3,7.3,30.3,7.3,42.1c0,11.3-2.7,18.9-8.1,22.8
				c-1.1,0.8-1.6,2.2-1.1,3.5c0.6,1.6,2.4,2.4,4,1.8c8.1-3.3,15.4-8.1,21.9-14.5c13.3-13.1,20-30.3,20-51.7c0-21.4-6.9-39-20.7-52.7
				C-416.6-418.1-432.9-425-451.7-425"/>
			<path id="Fill-16" class="st0" d="M-435.5-287.7c-0.7,0.1-1.5,0.1-2.2,0.1c-7.5,0-15.2-5.8-23-17.3c-7.9-11.5-14.2-25.4-19-41.6
				c-4.8-16.2-7.2-31.1-7.2-44.7c0-11.3,2.5-18.9,7.5-23.1c0.9-0.7,1.2-1.9,0.8-3c-0.5-1.6-2.3-2.3-3.8-1.6c-7.3,3.3-13.7,8-19.4,14
				c-12.7,13.5-19,31.2-19,53.1c0,21.1,6.9,38.3,20.7,51.5c13.8,13.2,30,19.8,48.5,19.8c6,0,11.6-0.6,17-1.8
				c1.7-0.4,2.6-2.1,2.1-3.7C-433.1-287-434.3-287.8-435.5-287.7"/>
		</g>
		<text transform="matrix(1 0 0 1 -617.4777 -213)" class="st1 st2 st3">Change is in the air</text>
		<text transform="matrix(1 0 0 1 -286.6411 -213)" class="st1 st2 st3"> </text>
	</g>
</g>
</svg>
