<?xml version="1.0" encoding="UTF-8"?>
<svg width="160px" height="39px" viewBox="0 0 160 39" version="1.1" xmlns="http://www.w3.org/2000/svg" xmlns:xlink="http://www.w3.org/1999/xlink">
    <title>Group 52 Copy</title>
    <g id="Page-1" stroke="none" stroke-width="1" fill="none" fill-rule="evenodd">
        <g id="Group-28" transform="translate(0.000000, 0.040278)" fill="#E5DED5">
            <path d="M125.5762,0.5284 L116.9422,0.5284 C116.0692,0.5284 115.6342,0.8994 115.6342,1.6384 L115.6342,1.8514 C115.6342,2.2744 115.8872,2.7324 116.3922,3.2264 C116.8982,3.7204 117.3342,4.2664 117.7012,4.8654 C118.0672,5.4654 118.1272,6.1354 117.8842,6.8764 L112.2322,24.5954 L107.5222,6.8764 C107.2782,5.9944 107.3652,5.2624 107.7842,4.6804 C108.2032,4.0984 108.6742,3.5894 109.1962,3.1464 C109.7202,2.7074 109.9822,2.2744 109.9822,1.8514 L109.9822,1.6384 C109.9822,0.8994 109.5452,0.5284 108.6742,0.5284 L94.5972,0.5284 C93.7252,0.5284 93.2892,0.8994 93.2892,1.6384 L93.2892,1.8514 C93.2892,2.3804 93.8382,3.1464 94.9372,4.1524 C96.0362,5.1564 96.7082,6.0654 96.9522,6.8764 L98.0502,10.2614 L93.4982,24.8064 L86.9572,6.8764 C86.6772,6.1354 86.7032,5.4654 87.0352,4.8654 C87.3662,4.2664 87.7762,3.7204 88.2652,3.2264 C88.7532,2.7324 88.9972,2.2744 88.9972,1.8514 L88.9972,1.6384 C88.9972,0.8994 88.5612,0.5284 87.6892,0.5284 L73.3512,0.5284 C72.4792,0.5284 72.0432,0.8994 72.0432,1.6384 L72.0432,1.8514 C72.0432,2.3804 72.5312,3.1034 73.5082,4.0194 C74.4842,4.9364 75.1822,5.8894 75.6012,6.8764 L87.7942,35.3334 C88.2122,36.3204 88.6922,37.0254 89.2332,37.4484 C89.7732,37.8724 90.5682,38.0834 91.6142,38.0834 C93.3232,38.0834 94.4922,37.0964 95.1202,35.1224 L100.5632,18.1424 L106.0042,35.3334 C106.5632,37.1674 107.8542,38.0834 109.8772,38.0834 C111.7952,38.0834 113.1042,37.0964 113.8022,35.1224 L123.5352,6.8764 C123.8142,6.0294 124.2422,5.2894 124.8172,4.6544 C125.3932,4.0194 125.8812,3.5084 126.2832,3.1204 C126.6832,2.7324 126.8852,2.3104 126.8852,1.8514 L126.8852,1.6384 C126.8852,0.8994 126.4482,0.5284 125.5762,0.5284" id="Fill-42"></path>
            <path d="M24.438,17.878 C26.217,17.385 27.63,16.45 28.677,15.075 C29.723,13.699 30.247,12.042 30.247,10.103 C30.247,7.282 29.112,4.982 26.845,3.2 C24.577,1.419 21.141,0.528 16.536,0.528 L1.308,0.528 C0.435,0.528 0,0.899 0,1.64 L0,1.852 C0,2.311 0.357,3.024 1.073,3.993 C1.788,4.963 2.146,5.924 2.146,6.876 L2.146,31.736 C2.146,32.689 1.788,33.649 1.073,34.619 C0.357,35.589 0,36.304 0,36.761 L0,36.973 C0,37.714 0.435,38.083 1.308,38.083 L15.49,38.083 C21.839,38.083 26.505,37.132 29.487,35.228 C32.471,33.323 33.962,30.732 33.962,27.452 C33.962,24.948 33.107,22.842 31.398,21.131 C29.688,19.421 27.368,18.337 24.438,17.878 M10.223,5.601 C9.449,5.601 9.513,4.654 10.223,4.654 L16.17,4.654 L16.285,4.654 L16.281,4.667 C17.727,4.697 18.897,5.304 19.78,6.506 C20.688,7.741 21.141,9.45 21.141,11.637 C21.141,13.047 20.819,14.167 20.173,14.994 C19.527,15.824 18.682,16.238 17.635,16.238 L15.856,16.238 C14.914,16.238 14.163,15.974 13.606,15.444 C13.047,14.916 12.768,14.194 12.768,13.275 L12.768,10.088 L12.768,8.736 L12.768,8.654 C12.764,8.179 12.631,5.601 10.223,5.601 M21.612,32.556 C20.914,33.491 20.025,33.958 18.943,33.958 L17.164,33.958 C15.838,33.958 14.774,33.482 13.972,32.53 C13.169,31.578 12.768,30.379 12.768,28.933 L12.768,20.312 L13.867,20.312 C16.553,20.312 18.69,21.246 20.278,23.114 C21.865,24.984 22.658,26.958 22.658,29.038 C22.658,30.449 22.309,31.622 21.612,32.556" id="Fill-44"></path>
            <path d="M159.74,27.7432 C159.513,27.3722 159.173,27.1872 158.719,27.1872 L158.196,27.1872 C157.428,27.1872 156.696,27.5402 155.998,28.2452 C155.3,28.9512 154.716,29.7352 154.245,30.5982 C153.774,31.4632 153.155,32.2482 152.387,32.9532 C151.62,33.6592 150.8,34.0112 149.928,34.0112 L146.16,34.0112 C144.939,34.0112 144.058,33.5882 143.518,32.7412 C142.976,31.8952 142.707,30.9082 142.707,29.7792 L142.707,21.1042 L147.155,21.1042 C147.852,21.1042 148.462,21.3252 148.986,21.7652 C149.509,22.2072 149.902,22.7002 150.163,23.2462 C150.425,23.7942 150.73,24.2872 151.079,24.7272 C151.428,25.1692 151.777,25.3892 152.126,25.3892 L152.649,25.3892 C153.382,25.3892 153.748,24.9482 153.748,24.0672 L153.748,13.7522 C153.748,12.8712 153.382,12.4302 152.649,12.4302 L152.126,12.4302 C151.777,12.4302 151.428,12.6682 151.079,13.1432 C150.73,13.6202 150.425,14.1402 150.163,14.7042 C149.902,15.2682 149.509,15.7892 148.986,16.2642 C148.462,16.7412 147.852,16.9782 147.155,16.9782 L142.707,16.9782 L142.707,8.7362 L142.696,8.7362 C142.696,8.7362 142.802,5.6002 140.15,5.6002 C139.377,5.6002 139.44,4.6002 140.15,4.6002 C140.772,4.6002 148.253,4.6012 148.253,4.6012 C149.125,4.6012 149.98,4.9362 150.817,5.6062 C151.654,6.2762 152.344,7.0082 152.885,7.8022 C153.425,8.5952 154.062,9.3272 154.794,9.9972 C155.527,10.6672 156.26,11.0022 156.993,11.0022 L157.306,11.0022 C157.795,11.0022 158.178,10.8522 158.458,10.5532 C158.737,10.2532 158.841,9.8552 158.771,9.3622 L157.516,2.2742 C157.411,1.6392 157.219,1.1902 156.94,0.9262 C156.661,0.6602 156.207,0.5282 155.58,0.5282 L131.194,0.5282 C130.321,0.5282 129.885,0.8992 129.885,1.6392 L129.885,1.8502 C129.885,2.3092 130.243,3.0232 130.958,3.9932 C131.672,4.9632 132.031,5.9242 132.031,6.8762 L132.031,31.7362 C132.031,32.6882 131.672,33.6502 130.958,34.6182 C130.243,35.5892 129.885,36.3042 129.885,36.7612 L129.885,36.9722 C129.885,37.7142 130.321,38.0842 131.194,38.0842 L156.888,38.0842 C157.516,38.0842 157.969,37.9422 158.248,37.6602 C158.527,37.3792 158.719,36.9022 158.824,36.2322 L159.975,28.9322 C160.045,28.5102 159.967,28.1132 159.74,27.7432" id="Fill-46"></path>
            <path d="M55.4593,0 C53.4503,0 51.5853,0.24 49.8603,0.713 C49.4973,0.812 49.3013,1.206 49.4263,1.561 L49.4263,1.561 C49.5313,1.859 49.8323,2.036 50.1453,1.989 C50.4113,1.95 50.6903,1.929 50.9843,1.929 C52.9823,1.929 55.0433,3.609 57.1643,6.969 C59.2853,10.329 60.9983,14.185 62.3033,18.533 C63.6083,22.884 64.2613,26.625 64.2613,29.758 C64.2613,32.774 63.5353,34.8 62.0893,35.845 C61.7953,36.058 61.6633,36.429 61.7833,36.771 C61.9353,37.205 62.4203,37.421 62.8463,37.249 C65.0023,36.377 66.9543,35.088 68.6983,33.376 C72.2573,29.885 74.0363,25.283 74.0363,19.57 C74.0363,13.858 72.1963,9.169 68.5153,5.501 C64.8343,1.834 60.4833,0 55.4593,0" id="Fill-48"></path>
            <path d="M59.781,36.6573 C59.588,36.6753 59.389,36.6833 59.184,36.6833 C57.185,36.6833 55.135,35.1483 53.035,32.0763 C50.933,29.0063 49.241,25.3043 47.956,20.9753 C46.671,16.6473 46.03,12.6683 46.03,9.0403 C46.03,6.0363 46.694,3.9863 48.021,2.8863 C48.256,2.6913 48.345,2.3713 48.243,2.0823 C48.098,1.6683 47.627,1.4763 47.229,1.6603 C45.292,2.5483 43.57,3.7933 42.063,5.3953 C38.679,8.9913 36.987,13.7183 36.987,19.5703 C36.987,25.2133 38.826,29.7973 42.508,33.3233 C46.188,36.8493 50.506,38.6123 55.459,38.6123 C57.051,38.6123 58.563,38.4503 59.999,38.1313 C60.439,38.0323 60.7,37.5773 60.551,37.1503 C60.437,36.8283 60.122,36.6273 59.781,36.6573" id="Fill-50"></path>
        </g>
    </g>
</svg>