<?xml version="1.0" encoding="UTF-8"?>
<svg width="600px" height="234px" viewBox="0 0 600 234" version="1.1" xmlns="http://www.w3.org/2000/svg" xmlns:xlink="http://www.w3.org/1999/xlink">
    <title>Group 39</title>
    <g id="Page-1" stroke="none" stroke-width="1" fill="none" fill-rule="evenodd">
        <g id="Bowe-Website" transform="translate(-660.000000, -425.000000)">
            <g id="Group-39" transform="translate(660.000000, 425.000000)">
                <g id="Group-18" transform="translate(-0.000000, 0.000000)" fill="#E5DED5">
                    <path d="M470.5154,1.9805 L438.1654,1.9805 C434.8944,1.9805 433.2624,3.3705 433.2624,6.1405 L433.2624,6.9365 C433.2624,8.5225 434.2104,10.2385 436.1054,12.0885 C437.9994,13.9405 439.6344,15.9875 441.0084,18.2315 C442.3804,20.4815 442.6064,22.9905 441.6944,25.7645 L420.5164,92.1555 L402.8694,25.7645 C401.9544,22.4605 402.2814,19.7185 403.8514,17.5395 C405.4204,15.3575 407.1854,13.4465 409.1434,11.7915 C411.1064,10.1415 412.0884,8.5225 412.0884,6.9365 L412.0884,6.1405 C412.0884,3.3705 410.4494,1.9805 407.1854,1.9805 L354.4404,1.9805 C351.1724,1.9805 349.5394,3.3705 349.5394,6.1405 L349.5394,6.9365 C349.5394,8.9165 351.5974,11.7915 355.7174,15.5575 C359.8344,19.3215 362.3494,22.7255 363.2644,25.7645 L367.3814,38.4495 L350.3234,92.9485 L325.8154,25.7645 C324.7674,22.9905 324.8644,20.4815 326.1074,18.2315 C327.3494,15.9875 328.8844,13.9405 330.7164,12.0885 C332.5444,10.2385 333.4594,8.5225 333.4594,6.9365 L333.4594,6.1405 C333.4594,3.3705 331.8244,1.9805 328.5594,1.9805 L274.8354,1.9805 C271.5694,1.9805 269.9334,3.3705 269.9334,6.1405 L269.9334,6.9365 C269.9334,8.9165 271.7644,11.6285 275.4224,15.0625 C279.0804,18.4985 281.6964,22.0675 283.2654,25.7645 L328.9504,132.3885 C330.5194,136.0885 332.3154,138.7295 334.3444,140.3155 C336.3684,141.9025 339.3444,142.6935 343.2654,142.6935 C349.6704,142.6935 354.0494,138.9965 356.4014,131.5955 L376.7954,67.9785 L397.1834,132.3885 C399.2754,139.2605 404.1124,142.6935 411.6944,142.6935 C418.8814,142.6935 423.7844,138.9965 426.4004,131.5955 L462.8694,25.7645 C463.9134,22.5915 465.5184,19.8185 467.6724,17.4405 C469.8294,15.0625 471.6604,13.1475 473.1624,11.6915 C474.6624,10.2385 475.4184,8.6565 475.4184,6.9365 L475.4184,6.1405 C475.4184,3.3705 473.7834,1.9805 470.5154,1.9805" id="Fill-8"></path>
                    <path d="M91.566,66.9853 C98.234,65.1373 103.526,61.6363 107.449,56.4833 C111.37,51.3303 113.33,45.1213 113.33,37.8543 C113.33,27.2853 109.081,18.6643 100.586,11.9923 C92.087,5.3173 79.212,1.9803 61.959,1.9803 L4.902,1.9803 C1.632,1.9803 -1.13686838e-13,3.3703 -1.13686838e-13,6.1423 L-1.13686838e-13,6.9363 C-1.13686838e-13,8.6563 1.339,11.3303 4.02,14.9643 C6.7,18.5963 8.04,22.1953 8.04,25.7643 L8.04,118.9133 C8.04,122.4793 6.7,126.0813 4.02,129.7123 C1.339,133.3473 -1.13686838e-13,136.0243 -1.13686838e-13,137.7383 L-1.13686838e-13,138.5333 C-1.13686838e-13,141.3083 1.632,142.6933 4.902,142.6933 L58.038,142.6933 C81.826,142.6933 99.312,139.1273 110.485,131.9913 C121.664,124.8573 127.253,115.1463 127.253,102.8593 C127.253,93.4793 124.048,85.5853 117.644,79.1733 C111.238,72.7673 102.546,68.7063 91.566,66.9853 M38.303,20.9853 C35.405,20.9853 35.643,17.4403 38.303,17.4403 L60.587,17.4403 L61.016,17.4403 L61.004,17.4853 C66.42,17.6013 70.803,19.8733 74.114,24.3763 C77.514,29.0043 79.212,35.4103 79.212,43.6023 C79.212,48.8853 78.005,53.0823 75.587,56.1823 C73.165,59.2933 69.997,60.8433 66.076,60.8433 L59.412,60.8433 C55.881,60.8433 53.069,59.8523 50.98,57.8683 C48.886,55.8873 47.841,53.1833 47.841,49.7433 L47.841,37.7973 L47.841,32.7333 L47.841,32.4253 C47.825,30.6443 47.326,20.9853 38.303,20.9853 M80.977,121.9833 C78.363,125.4863 75.03,127.2353 70.979,127.2353 L64.312,127.2353 C59.342,127.2353 55.358,125.4513 52.352,121.8843 C49.341,118.3183 47.841,113.8263 47.841,108.4063 L47.841,76.1033 L51.958,76.1033 C62.022,76.1033 70.03,79.6053 75.979,86.6053 C81.925,93.6123 84.899,101.0083 84.899,108.8033 C84.899,114.0903 83.591,118.4833 80.977,121.9833" id="Fill-10"></path>
                    <path d="M598.5223,103.9502 C597.6703,102.5592 596.3963,101.8672 594.6983,101.8672 L592.7383,101.8672 C589.8613,101.8672 587.1163,103.1892 584.5033,105.8322 C581.8863,108.4762 579.6993,111.4132 577.9353,114.6502 C576.1673,117.8882 573.8473,120.8302 570.9723,123.4712 C568.0993,126.1162 565.0243,127.4332 561.7573,127.4332 L547.6413,127.4332 C543.0643,127.4332 539.7643,125.8492 537.7393,122.6772 C535.7103,119.5072 534.7013,115.8092 534.7013,111.5792 L534.7013,79.0752 L551.3663,79.0752 C553.9803,79.0752 556.2663,79.9012 558.2293,81.5542 C560.1883,83.2082 561.6603,85.0542 562.6403,87.1012 C563.6183,89.1522 564.7653,91.0022 566.0723,92.6522 C567.3773,94.3052 568.6863,95.1292 569.9943,95.1292 L571.9543,95.1292 C574.7003,95.1292 576.0713,93.4782 576.0713,90.1762 L576.0713,51.5262 C576.0713,48.2262 574.7003,46.5732 571.9543,46.5732 L569.9943,46.5732 C568.6863,46.5732 567.3773,47.4652 566.0723,49.2482 C564.7653,51.0342 563.6183,52.9822 562.6403,55.0962 C561.6603,57.2112 560.1883,59.1592 558.2293,60.9432 C556.2663,62.7252 553.9803,63.6172 551.3663,63.6172 L534.7013,63.6172 L534.7013,32.7332 L534.6613,32.7332 C534.6613,32.7332 535.0583,20.9862 525.1213,20.9862 C522.2253,20.9862 522.4613,17.2372 525.1213,17.2372 C527.4523,17.2372 555.4833,17.2432 555.4833,17.2432 C558.7483,17.2432 561.9523,18.4992 565.0913,21.0062 C568.2263,23.5172 570.8093,26.2582 572.8373,29.2332 C574.8603,32.2052 577.2483,34.9482 579.9923,37.4572 C582.7383,39.9682 585.4823,41.2212 588.2293,41.2212 L589.4043,41.2212 C591.2333,41.2212 592.6703,40.6612 593.7183,39.5392 C594.7623,38.4172 595.1543,36.9292 594.8933,35.0792 L590.1893,8.5232 C589.7953,6.1412 589.0753,4.4602 588.0323,3.4692 C586.9843,2.4752 585.2863,1.9802 582.9343,1.9802 L491.5643,1.9802 C488.2953,1.9802 486.6613,3.3702 486.6613,6.1412 L486.6613,6.9362 C486.6613,8.6552 488.0013,11.3292 490.6813,14.9632 C493.3573,18.5962 494.7013,22.1962 494.7013,25.7652 L494.7013,118.9122 C494.7013,122.4802 493.3573,126.0822 490.6813,129.7112 C488.0013,133.3482 486.6613,136.0252 486.6613,137.7382 L486.6613,138.5322 C486.6613,141.3072 488.2953,142.6942 491.5643,142.6942 L587.8353,142.6942 C590.1893,142.6942 591.8873,142.1662 592.9333,141.1072 C593.9783,140.0532 594.6983,138.2682 595.0913,135.7572 L599.4043,108.4072 C599.6633,106.8232 599.3713,105.3352 598.5223,103.9502" id="Fill-12"></path>
                    <path d="M207.7981,1.8189894e-12 C200.2691,1.8189894e-12 193.2821,0.899 186.8191,2.67 C185.4611,3.043 184.7261,4.519 185.1931,5.849 L185.1931,5.849 C185.5851,6.967 186.7131,7.629 187.8861,7.455 C188.8841,7.307 189.9311,7.228 191.0321,7.228 C198.5181,7.228 206.2391,13.523 214.1851,26.111 C222.1321,38.703 228.5521,53.146 233.4421,69.439 C238.3321,85.741 240.7771,99.76 240.7771,111.497 C240.7771,122.8 238.0561,130.391 232.6411,134.306 C231.5381,135.103 231.0421,136.492 231.4931,137.776 C232.0631,139.401 233.8801,140.211 235.4771,139.565 C243.5551,136.299 250.8681,131.468 257.4041,125.054 C270.7391,111.976 277.4041,94.733 277.4041,73.328 C277.4041,51.924 270.5081,34.354 256.7181,20.612 C242.9241,6.871 226.6211,1.8189894e-12 207.7981,1.8189894e-12" id="Fill-14"></path>
                    <path d="M223.991,137.3496 C223.269,137.4146 222.523,137.4476 221.753,137.4476 C214.263,137.4476 206.581,131.6966 198.713,120.1866 C190.84,108.6796 184.501,94.8136 179.684,78.5946 C174.87,62.3736 172.467,47.4666 172.467,33.8706 C172.467,22.6176 174.957,14.9376 179.927,10.8156 C180.81,10.0826 181.14,8.8836 180.761,7.8016 C180.216,6.2506 178.453,5.5346 176.96,6.2196 C169.704,9.5476 163.251,14.2116 157.604,20.2156 C144.923,33.6896 138.583,51.3996 138.583,73.3286 C138.583,94.4706 145.477,111.6466 159.272,124.8576 C173.059,138.0716 189.237,144.6736 207.798,144.6736 C213.761,144.6736 219.428,144.0676 224.806,142.8706 C226.458,142.5026 227.435,140.7956 226.874,139.1986 C226.45,137.9906 225.267,137.2356 223.991,137.3496" id="Fill-16"></path>
                </g>
                <text id="Change-is-in-the-air" font-family="Recoleta-Regular, Recoleta" font-size="61.9936" font-weight="normal" fill="#FF8964">
                    <tspan x="43" y="212">Change is in</tspan>
                    <tspan x="373.363894" y="212" letter-spacing="-0.6819296"> </tspan>
                    <tspan x="385.948595" y="212">the air</tspan>
                </text>
            </g>
        </g>
    </g>
</svg>