<svg width="1760" height="425" xmlns="http://www.w3.org/2000/svg"><g fill="#E5DED5" fill-rule="evenodd"><path d="M1381.34 5.816h-94.973c-9.602 0-14.393 4.08-14.393 12.214v2.336c0 4.655 2.782 9.693 8.345 15.124a93.216 93.216 0 0 1 14.395 18.034c4.029 6.607 4.692 13.972 2.014 22.116l-62.174 194.911-51.81-194.911c-2.685-9.698-1.724-17.75 2.884-24.149 4.607-6.403 9.787-12.014 15.534-16.873 5.764-4.843 8.647-9.597 8.647-14.252V18.03c0-8.134-4.812-12.214-14.394-12.214h-154.849c-9.592 0-14.389 4.08-14.389 12.214v2.336c0 5.811 6.043 14.252 18.139 25.31 12.085 11.047 19.47 21.043 22.158 29.964l12.086 37.239-50.078 159.999L956.528 75.64c-3.076-8.144-2.792-15.509.86-22.116 3.644-6.588 8.15-12.598 13.53-18.034 5.365-5.431 8.053-10.469 8.053-15.124V18.03c0-8.134-4.802-12.214-14.385-12.214H806.861c-9.587 0-14.39 4.08-14.39 12.214v2.336c0 5.811 5.375 13.774 16.115 23.855 10.74 10.085 18.418 20.565 23.025 31.419l134.123 313.026c4.606 10.863 9.876 18.617 15.834 23.272 5.943 4.659 14.678 6.981 26.192 6.981 18.802 0 31.66-10.853 38.564-32.579l59.871-186.769 59.858 189.095c6.14 20.177 20.341 30.253 42.6 30.253 21.1 0 35.495-10.853 43.172-32.579l107.067-310.7c3.066-9.314 7.778-17.456 14.101-24.438 6.332-6.981 11.707-12.602 16.119-16.877 4.403-4.266 6.621-8.911 6.621-13.959V18.03c0-8.134-4.8-12.214-14.393-12.214M268.82 196.656c19.574-5.422 35.111-15.702 46.628-30.831 11.513-15.128 17.267-33.358 17.267-54.69 0-31.03-12.475-56.34-37.415-75.928-24.949-19.594-62.748-29.391-113.4-29.391H14.393C4.791 5.816 0 9.896 0 18.035v2.332c0 5.048 3.932 12.896 11.801 23.565C19.669 54.596 23.602 65.16 23.602 75.64v273.466c0 10.469-3.933 21.044-11.801 31.703C3.932 391.482 0 399.34 0 404.374v2.332c0 8.148 4.791 12.214 14.393 12.214h155.995c69.838 0 121.172-10.47 153.975-31.42 32.817-20.943 49.227-49.452 49.227-85.526 0-27.536-9.41-50.713-28.211-69.534-18.807-18.807-44.325-30.731-76.559-35.784M112.451 61.61c-8.508 0-7.811-10.407 0-10.407H179.132l-.038.133c15.902.34 28.77 7.009 38.491 20.228 9.981 13.588 14.967 32.395 14.967 56.444 0 15.512-3.545 27.83-10.645 36.935-7.109 9.129-16.408 13.684-27.92 13.684h-19.565c-10.367 0-18.623-2.911-24.756-8.736-6.147-5.815-9.213-13.754-9.213-23.854V95.195c-.048-5.227-1.512-33.585-28.002-33.585m125.282 296.51c-7.674 10.285-17.461 15.418-29.352 15.418h-19.575c-14.589 0-26.286-5.237-35.111-15.706-8.839-10.471-13.242-23.661-13.242-39.572v-94.835h12.085c29.548 0 53.055 10.28 70.521 30.83 17.455 20.572 26.187 42.288 26.187 65.17 0 15.524-3.84 28.42-11.513 38.695M1757.142 305.176c-2.502-4.08-6.242-6.113-11.228-6.113h-5.754c-8.445 0-16.503 3.882-24.176 11.64-7.684 7.764-14.1 16.385-19.28 25.888-5.19 9.507-12.002 18.142-20.443 25.897-8.435 7.764-17.462 11.63-27.054 11.63h-41.443c-13.436 0-23.125-4.65-29.068-13.962-5.956-9.308-8.919-20.163-8.919-32.58v-95.428h48.926c7.673 0 14.385 2.428 20.148 7.28 5.75 4.855 10.071 10.275 12.95 16.286 2.871 6.02 6.237 11.452 10.075 16.295 3.83 4.853 7.673 7.27 11.513 7.27h5.754c8.061 0 12.086-4.844 12.086-14.54V151.272c0-9.688-4.025-14.541-12.086-14.541h-5.754c-3.84 0-7.684 2.617-11.513 7.853-3.838 5.243-7.204 10.964-10.076 17.167-2.878 6.208-7.2 11.93-12.949 17.166-5.763 5.233-12.475 7.85-20.148 7.85h-48.926V96.1h-.119s1.167-34.487-28.006-34.487c-8.503 0-7.81-11.005 0-11.005 6.843 0 89.136.014 89.136.014 9.584 0 18.993 3.688 28.206 11.05 9.205 7.373 16.788 15.417 22.741 24.152 5.94 8.726 12.95 16.779 21.006 24.144 8.062 7.37 16.12 11.052 24.181 11.052h3.45c5.371 0 9.588-1.645 12.666-4.939 3.066-3.293 4.217-7.663 3.45-13.096l-13.812-77.96c-1.155-6.992-3.269-11.93-6.33-14.84-3.078-2.915-8.063-4.37-14.969-4.37h-268.244c-9.596 0-14.393 4.08-14.393 12.218v2.332c0 5.047 3.933 12.897 11.801 23.565 7.86 10.664 11.802 21.234 11.802 31.713v273.46c0 10.476-3.943 21.05-11.802 31.705-7.868 10.678-11.8 18.536-11.8 23.565v2.332c0 8.147 4.796 12.219 14.392 12.219h282.633c6.91 0 11.897-1.55 14.968-4.66 3.066-3.094 5.18-8.332 6.336-15.706l12.66-80.293c.763-4.65-.095-9.02-2.588-13.088M610.054 0c-22.104 0-42.616 2.64-61.589 7.84-3.989 1.094-6.145 5.427-4.776 9.33h.001c1.152 3.284 4.463 5.226 7.906 4.717a62.933 62.933 0 0 1 9.237-.666c21.978 0 44.643 18.483 67.973 55.436 23.328 36.968 42.178 79.371 56.533 127.205 14.357 47.859 21.534 89.013 21.534 123.472 0 33.182-7.987 55.469-23.886 66.961-3.239 2.34-4.694 6.419-3.37 10.189 1.674 4.771 7.008 7.148 11.696 5.253 23.717-9.59 45.185-23.773 64.374-42.603 39.15-38.395 58.716-89.014 58.716-151.857 0-62.837-20.245-114.418-60.73-154.762C713.178 20.172 665.313 0 610.054 0M657.593 403.233c-2.12.19-4.31.286-6.57.286-21.989 0-44.542-16.883-67.642-50.674-23.114-33.781-41.725-74.491-55.866-122.106-14.13-47.62-21.187-91.384-21.187-131.3 0-33.038 7.311-55.586 21.903-67.688a8.02 8.02 0 0 0 2.446-8.845c-1.598-4.554-6.773-6.66-11.159-4.647-21.302 9.772-40.245 23.465-56.823 41.09-37.23 39.558-55.842 91.55-55.842 155.928 0 62.07 20.238 112.495 60.738 151.28 40.476 38.793 87.972 58.178 142.463 58.178 17.507 0 34.143-1.781 49.932-5.295 4.85-1.08 7.716-6.091 6.071-10.78-1.245-3.548-4.719-5.763-8.464-5.427"/></g></svg>