<svg id="Layer_1" data-name="Layer 1" xmlns="http://www.w3.org/2000/svg" viewBox="0 0 425.2 165.35"><defs><style>.cls-1{fill:#e5ded5;}.cls-2{fill:#ff8964;}</style></defs><path class="cls-1" d="M333.72,1.4h-23q-3.48,0-3.48,3v.56c0,1.13.68,2.34,2,3.65a22.37,22.37,0,0,1,3.48,4.36,6.13,6.13,0,0,1,.48,5.34l-15,47.09L285.74,18.27a6.56,6.56,0,0,1,.69-5.83,22.92,22.92,0,0,1,3.76-4.08c1.39-1.17,2.09-2.31,2.09-3.44V4.36c0-2-1.17-3-3.48-3H251.39q-3.48,0-3.48,3v.56q0,2.1,4.39,6.12c2.92,2.66,4.7,5.08,5.35,7.23l2.92,9-12.1,38.65L231.09,18.27a6.06,6.06,0,0,1,.21-5.34,19.93,19.93,0,0,1,3.26-4.36,5.48,5.48,0,0,0,1.95-3.65V4.36q0-3-3.48-3h-38.1q-3.48,0-3.48,3v.56c0,1.4,1.3,3.33,3.9,5.76a22.86,22.86,0,0,1,5.56,7.59l32.4,75.63a13.92,13.92,0,0,0,3.83,5.62q2.15,1.7,6.33,1.69,6.81,0,9.31-7.87l14.46-45.12L281.7,93.9q2.24,7.3,10.3,7.31,7.65,0,10.43-7.87l25.86-75.07a16.38,16.38,0,0,1,3.41-5.9c1.53-1.69,2.83-3,3.9-4.08a4.65,4.65,0,0,0,1.6-3.37V4.36q0-3-3.48-3"/><path class="cls-1" d="M57.43,86.52a8.49,8.49,0,0,1-7.09,3.72H45.61a10.53,10.53,0,0,1-8.48-3.79,14.34,14.34,0,0,1-3.2-9.56V54h2.92q10.71,0,17,7.45t6.32,15.74a15.15,15.15,0,0,1-2.78,9.35M27.17,14.88a1.27,1.27,0,1,1,0-2.51H43.28v0a11.32,11.32,0,0,1,9.3,4.89q3.61,4.92,3.61,13.64c0,3.74-.85,6.72-2.57,8.92a8.15,8.15,0,0,1-6.74,3.3H42.14a8.3,8.3,0,0,1-6-2.11,7.52,7.52,0,0,1-2.23-5.76V23c0-1.26-.36-8.12-6.76-8.12M64.94,47.51a20.6,20.6,0,0,0,11.27-7.45,21.18,21.18,0,0,0,4.17-13.21,22.25,22.25,0,0,0-9-18.34Q62.3,1.4,44,1.41H3.48Q0,1.41,0,4.36v.56q0,1.83,2.85,5.69A12.91,12.91,0,0,1,5.7,18.27V84.34A12.91,12.91,0,0,1,2.85,92Q0,95.87,0,97.69v.57c0,2,1.16,2.95,3.48,2.95H41.16q25.32,0,37.2-7.59T90.26,73a22.83,22.83,0,0,0-6.82-16.79q-6.81-6.82-18.5-8.65"/><path class="cls-1" d="M424.51,73.73a3,3,0,0,0-2.72-1.48H420.4a8.23,8.23,0,0,0-5.84,2.81,28.17,28.17,0,0,0-4.66,6.26A24.15,24.15,0,0,1,405,87.57a9.51,9.51,0,0,1-6.54,2.81h-10q-4.87,0-7-3.37a14.27,14.27,0,0,1-2.16-7.87v-23h11.82a7.34,7.34,0,0,1,4.87,1.75,12,12,0,0,1,3.13,3.94,20.31,20.31,0,0,0,2.43,3.93,3.74,3.74,0,0,0,2.78,1.76h1.39q2.93,0,2.92-3.51V36.55c0-2.34-1-3.52-2.92-3.52h-1.39c-.93,0-1.85.64-2.78,1.9a23.9,23.9,0,0,0-2.43,4.15,13.18,13.18,0,0,1-3.13,4.15,7,7,0,0,1-4.87,1.89H379.24V23.22h0s.28-8.33-6.76-8.33a1.35,1.35,0,1,1,0-2.66H394a10.82,10.82,0,0,1,6.81,2.67,26.86,26.86,0,0,1,5.5,5.83,33.26,33.26,0,0,0,5.07,5.84,8.76,8.76,0,0,0,5.85,2.67H418A4,4,0,0,0,421.1,28a3.63,3.63,0,0,0,.83-3.16L418.6,6.05a6.29,6.29,0,0,0-1.53-3.59,5.18,5.18,0,0,0-3.62-1h-64.8q-3.48,0-3.48,3v.56q0,1.83,2.85,5.69a12.91,12.91,0,0,1,2.85,7.67V84.34A12.91,12.91,0,0,1,348,92q-2.85,3.87-2.85,5.69v.56q0,3,3.48,3h68.28a4.91,4.91,0,0,0,3.61-1.13,6.87,6.87,0,0,0,1.53-3.79l3.06-19.4a4.45,4.45,0,0,0-.62-3.16"/><path class="cls-1" d="M147.38,0A56.4,56.4,0,0,0,132.5,1.89a1.75,1.75,0,0,0,.76,3.4,14.54,14.54,0,0,1,2.23-.16q8,0,16.42,13.39a124,124,0,0,1,13.66,30.73q5.2,17.34,5.2,29.83c0,8-1.93,13.4-5.77,16.18A2.13,2.13,0,0,0,167,99,47.74,47.74,0,0,0,182.57,88.7Q196.75,74.78,196.75,52T182.08,14.62Q167.41,0,147.38,0"/><path class="cls-1" d="M158.87,97.42c-.51,0-1,.07-1.59.07q-8,0-16.34-12.25t-13.5-29.5Q122.33,38.49,122.32,24q0-12,5.3-16.35a2,2,0,0,0,.59-2.14,2,2,0,0,0-2.7-1.12,43.76,43.76,0,0,0-13.73,9.93Q98.3,28.67,98.29,52q0,22.49,14.68,36.55t34.41,14a55.42,55.42,0,0,0,12.07-1.28,2,2,0,0,0,1.46-2.6,2,2,0,0,0-2-1.31"/><path class="cls-2" d="M381,142.44v-3.28c0-.87-.41-1.11-1.22-.72l-4.13,1.9c-.51.28-.76.57-.76.88v.13c0,.25.3.61.91,1.07a2,2,0,0,1,.9,1.66v11.33a2.18,2.18,0,0,1-.8,1.65c-.53.47-.8.84-.8,1.09v.17c0,.39.3.59.89.59h6.52c.59,0,.89-.2.89-.59v-.17c0-.25-.33-.62-1-1.09a2,2,0,0,1-1-1.65v-9a8.18,8.18,0,0,1,.76-3.71,2.34,2.34,0,0,1,2.15-1.51,1.65,1.65,0,0,1,1.26.5,2.32,2.32,0,0,1,.59,1.14,2.17,2.17,0,0,0,.63,1.14,2,2,0,0,0,1.43.5c1.46,0,2.19-.88,2.19-2.65a3.4,3.4,0,0,0-1-2.53,3.9,3.9,0,0,0-2.84-1,5.51,5.51,0,0,0-5.6,4.17m-9.77,16.47c.61,0,.92-.21.92-.63v-.17c0-.25-.29-.62-.86-1.1a2.06,2.06,0,0,1-.86-1.64V139.16a.83.83,0,0,0-.4-.78,1.24,1.24,0,0,0-1.12.06l-4.21,2.11c-.51.28-.76.53-.76.75v.13c0,.17.26.53.78,1.1a2.61,2.61,0,0,1,.78,1.81v11a2.16,2.16,0,0,1-.78,1.64c-.52.48-.78.85-.78,1.1v.17c0,.42.3.63.88.63Zm-.82-24.6a3.22,3.22,0,0,0,0-4.55,3.49,3.49,0,0,0-2.47-.88,3.61,3.61,0,0,0-2.53.88,3.18,3.18,0,0,0,0,4.55,3.62,3.62,0,0,0,2.53.89,3.5,3.5,0,0,0,2.47-.89m-22.45,21.86a6,6,0,0,1-1.2-3.79,4.11,4.11,0,0,1,1.09-3,3.86,3.86,0,0,1,2.87-1.12,3.83,3.83,0,0,1,2.78,1.06,4.22,4.22,0,0,1,1.22,2.86l.12,1.31a4.12,4.12,0,0,1-1,3,3.5,3.5,0,0,1-2.8,1.26,3.73,3.73,0,0,1-3.09-1.56M359.12,147a10.14,10.14,0,0,0-2.91-6.42,8.87,8.87,0,0,0-6.4-2.34,10.55,10.55,0,0,0-5.58,1.35A3.92,3.92,0,0,0,342,143a1.82,1.82,0,0,0,.57,1.41,2.12,2.12,0,0,0,1.49.53,1.8,1.8,0,0,0,1.48-.8,6.45,6.45,0,0,0,.9-1.75,4.25,4.25,0,0,1,1.18-1.75,3.09,3.09,0,0,1,2.17-.8,3.26,3.26,0,0,1,3.08,1.77,15.64,15.64,0,0,1,1.34,5.64l.09.84a7.83,7.83,0,0,0-4.89-1.43,8.81,8.81,0,0,0-5.51,1.67,5.4,5.4,0,0,0-2.15,4.65,5.57,5.57,0,0,0,2.17,4.7,9.08,9.08,0,0,0,5.7,1.66q4.17,0,5.86-2.7a2.54,2.54,0,0,0,.9,2,4.52,4.52,0,0,0,2.47.52c2.27,0,3.41-.35,3.41-1a.64.64,0,0,0-.32-.55,3.11,3.11,0,0,0-.71-.34,1.66,1.66,0,0,1-.8-.65,2.77,2.77,0,0,1-.49-1.45Zm-35.23-5.54a5.45,5.45,0,0,1,1.16,3.14,1.8,1.8,0,0,1-1.1,1.77l-7,3a13.58,13.58,0,0,1-.25-2.69,9.26,9.26,0,0,1,1.18-5,3.57,3.57,0,0,1,3.16-1.9,3.41,3.41,0,0,1,2.84,1.62m3,13.44a6.24,6.24,0,0,1-3.3.86,6,6,0,0,1-3.79-1.22,7.33,7.33,0,0,1-2.41-3.41l10.2-3.75a2.89,2.89,0,0,0,2.14-2.95,5.7,5.7,0,0,0-2-4.31,8.31,8.31,0,0,0-5.83-1.88,9.7,9.7,0,0,0-7.14,2.95,10.11,10.11,0,0,0-2.93,7.41,10.67,10.67,0,0,0,2.85,7.75,9.47,9.47,0,0,0,7.13,3,8.7,8.7,0,0,0,5.94-2,7,7,0,0,0,2.61-4.21.63.63,0,0,0-.48-.76.77.77,0,0,0-.86.34,5.46,5.46,0,0,1-2.09,2.21m-19.27-7.77q-.24-4.51-2.48-6.7a7.52,7.52,0,0,0-5.48-2.19,6.79,6.79,0,0,0-5.89,2.82l0-13.09c0-.85-.45-1.07-1.35-.68l-4.5,2c-.48.23-.72.52-.72.89v.12a.85.85,0,0,0,.44.65,5.63,5.63,0,0,1,.89.83,1.84,1.84,0,0,1,.44,1.26v22.36a1.69,1.69,0,0,1-.42,1.18,7.21,7.21,0,0,1-.85.82,1,1,0,0,0-.42.74v.13c0,.42.3.63.89.63h6.53c.61,0,.92-.21.92-.63v-.13c0-.25-.29-.62-.86-1.12a2.1,2.1,0,0,1-.86-1.62v-9.89a5.62,5.62,0,0,1,1.22-3.77,4,4,0,0,1,3.2-1.46q4.13,0,4.42,6.74l.42,8.34a2.08,2.08,0,0,1-.74,1.66c-.52.5-.77.87-.77,1.12v.17c0,.39.29.59.88.59h6.19c.59,0,.89-.2.89-.59v-.17A2,2,0,0,0,309,157a2.68,2.68,0,0,1-.8-1.66Zm-23.56,10.49a5.55,5.55,0,0,0,1.62-4,.59.59,0,0,0-.27-.55.81.81,0,0,0-.61-.09.75.75,0,0,0-.51.43,2.67,2.67,0,0,1-3,2.19,2.15,2.15,0,0,1-1.73-.83,3.55,3.55,0,0,1-.67-2.29V140.76h5.31c.5,0,.76-.24.76-.72v-.59a.72.72,0,0,0-.22-.55.73.73,0,0,0-.54-.21h-5.31l0-4.08c0-.62-.27-.93-.8-.93h-.63c-.48,0-.76.31-.85.93a5.35,5.35,0,0,1-1.24,3,3.32,3.32,0,0,1-2.59,1.09h-1.3c-.48,0-.72.26-.72.76V140a.64.64,0,0,0,.72.72h2.4v11.75a7.27,7.27,0,0,0,1.58,5.07,5.5,5.5,0,0,0,4.31,1.75,5.72,5.72,0,0,0,4.32-1.68m-25.25-10.24q-.3-4.68-2.53-6.91a7.91,7.91,0,0,0-9.3-1.26,6.43,6.43,0,0,0-2.57,2.7V139.2a1,1,0,0,0-.32-.82q-.31-.24-1,.06l-4.08,2c-.51.22-.76.48-.76.76v.12a.86.86,0,0,0,.46.7,5.71,5.71,0,0,1,.95.82,1.82,1.82,0,0,1,.48,1.31v11.28a2.13,2.13,0,0,1-.84,1.65c-.56.47-.84.84-.84,1.09v.17c0,.42.29.63.88.63h6.53q.93,0,.93-.63v-.17c0-.25-.29-.62-.87-1.09a2.13,2.13,0,0,1-.86-1.65v-9.89a5.67,5.67,0,0,1,1.22-3.77,4,4,0,0,1,3.2-1.46q4.13,0,4.43,7l.42,8.13a2.12,2.12,0,0,1-.74,1.66c-.52.5-.78.87-.78,1.12v.17q0,.63.93.63h6.15c.61,0,.92-.21.92-.63v-.17c0-.25-.24-.62-.73-1.12a2.38,2.38,0,0,1-.78-1.66Zm-24.17,11.5c.61,0,.92-.21.92-.63v-.17c0-.25-.29-.62-.86-1.1a2.06,2.06,0,0,1-.86-1.64V139.16a.83.83,0,0,0-.4-.78,1.24,1.24,0,0,0-1.12.06l-4.21,2.11c-.51.28-.76.53-.76.75v.13c0,.17.26.53.78,1.1a2.61,2.61,0,0,1,.78,1.81v11a2.16,2.16,0,0,1-.78,1.64c-.52.48-.78.85-.78,1.1v.17c0,.42.3.63.88.63Zm-.82-24.6a3.22,3.22,0,0,0,0-4.55,3.49,3.49,0,0,0-2.47-.88,3.61,3.61,0,0,0-2.53.88,3.18,3.18,0,0,0,0,4.55,3.62,3.62,0,0,0,2.53.89,3.5,3.5,0,0,0,2.47-.89m-20.64,23.31a4.93,4.93,0,0,0,2.42-4.19,5.29,5.29,0,0,0-1.26-3.7,6.76,6.76,0,0,0-3.08-1.94q-1.81-.54-3.6-1a9,9,0,0,1-3.05-1.33,2.83,2.83,0,0,1-1.27-2.44,3,3,0,0,1,1-2.32,4,4,0,0,1,4.57-.37,3.56,3.56,0,0,1,1.22,1.32c.26.52.52,1,.75,1.56a4.91,4.91,0,0,0,.89,1.33,1.77,1.77,0,0,0,1.33.54,2,2,0,0,0,1.39-.5,1.71,1.71,0,0,0,.54-1.31c0-1.29-.78-2.45-2.33-3.47a10.87,10.87,0,0,0-6.09-1.54,9.75,9.75,0,0,0-5.94,1.71,5.13,5.13,0,0,0-2.32,4.27,5.39,5.39,0,0,0,1.27,3.73,6.69,6.69,0,0,0,3.07,2c1.21.36,2.41.69,3.6,1a9.16,9.16,0,0,1,3.06,1.28,2.77,2.77,0,0,1,1.26,2.42,2.88,2.88,0,0,1-1.07,2.4,5,5,0,0,1-5.06.3,3.71,3.71,0,0,1-1.34-1.33,12.86,12.86,0,0,1-.78-1.58,4.17,4.17,0,0,0-.91-1.35,2,2,0,0,0-1.41-.54,2.26,2.26,0,0,0-1.54.5,1.82,1.82,0,0,0-.57,1.43c0,1.24.82,2.36,2.45,3.35a12,12,0,0,0,6.36,1.5,11.16,11.16,0,0,0,6.42-1.67m-18.68,1.29q.93,0,.93-.63v-.17c0-.25-.29-.62-.87-1.1a2.09,2.09,0,0,1-.86-1.64V139.16a.81.81,0,0,0-.4-.78,1.24,1.24,0,0,0-1.12.06L188,140.55c-.5.28-.76.53-.76.75v.13c0,.17.26.53.78,1.1a2.61,2.61,0,0,1,.78,1.81v11A2.16,2.16,0,0,1,188,157c-.52.48-.78.85-.78,1.1v.17c0,.42.3.63.89.63Zm-.82-24.6a3.2,3.2,0,0,0,0-4.55,3.45,3.45,0,0,0-2.46-.88,3.59,3.59,0,0,0-2.53.88,3.15,3.15,0,0,0,0,4.55,3.6,3.6,0,0,0,2.53.89,3.46,3.46,0,0,0,2.46-.89m-24.55,7.18a5.44,5.44,0,0,1,1.15,3.14,1.8,1.8,0,0,1-1.09,1.77l-7,3a13.57,13.57,0,0,1-.26-2.69,9.35,9.35,0,0,1,1.18-5,3.58,3.58,0,0,1,3.16-1.9,3.42,3.42,0,0,1,2.85,1.62m3,13.44a6.25,6.25,0,0,1-3.31.86,6,6,0,0,1-3.79-1.22,7.25,7.25,0,0,1-2.4-3.41l10.19-3.75a2.9,2.9,0,0,0,2.15-2.95,5.7,5.7,0,0,0-2-4.31,8.32,8.32,0,0,0-5.83-1.88,9.7,9.7,0,0,0-7.14,2.95,10.07,10.07,0,0,0-2.93,7.41,10.71,10.71,0,0,0,2.84,7.75,9.5,9.5,0,0,0,7.14,3,8.73,8.73,0,0,0,5.94-2,7,7,0,0,0,2.61-4.21.63.63,0,0,0-.48-.76.79.79,0,0,0-.87.34,5.43,5.43,0,0,1-2.08,2.21m-31.76-13.69a3.53,3.53,0,0,1,2.93-1.37,4.64,4.64,0,0,1,4,2.57,11.53,11.53,0,0,1,1.58,6.15,5.47,5.47,0,0,1-1.14,3.58,3.74,3.74,0,0,1-3.07,1.39q-2.19,0-3.79-2.59a11.48,11.48,0,0,1-1.6-6.17,5.63,5.63,0,0,1,1.07-3.56m7.23-2.76c-1.58-.14-2.74-.21-3.5-.21a10.09,10.09,0,0,0-7,2.42,8,8,0,0,0-2.7,6.26,7.48,7.48,0,0,0,2.74,5.87A9.9,9.9,0,0,0,144,155.2c.36,0,.88,0,1.56-.08a3.85,3.85,0,0,1,2.71,1.35,4.47,4.47,0,0,1,1,3,4,4,0,0,1-1.36,3.13,6.13,6.13,0,0,1-6.43.53,4.71,4.71,0,0,1-1.7-1.64,19.52,19.52,0,0,1-1-1.92,6.73,6.73,0,0,0-1-1.62,1.77,1.77,0,0,0-1.41-.67,2,2,0,0,0-1.5.56,2,2,0,0,0-.53,1.42,5.21,5.21,0,0,0,2.62,4.27,12.19,12.19,0,0,0,7.11,1.83,14.35,14.35,0,0,0,7.29-1.66,5,5,0,0,0,2.86-4.44c0-2.56-1.74-4.24-5.22-5.06a8.4,8.4,0,0,0,3.58-3,7.85,7.85,0,0,0,1.31-4.44,7,7,0,0,0-.74-3,8.09,8.09,0,0,0-1.92-2.56,9.45,9.45,0,0,1,1.2-.21,5.72,5.72,0,0,0,1.39-.34,1.27,1.27,0,0,0,.7-.72.82.82,0,0,0,.1-.59q-.06-.25-.54-.42a4.45,4.45,0,0,0-1.37-.17q-2.65,0-5-.21m-17.4,8.93c-.19-3.12-1-5.42-2.53-6.91a7.91,7.91,0,0,0-9.3-1.26,6.43,6.43,0,0,0-2.57,2.7V139.2a1,1,0,0,0-.32-.82q-.32-.24-1,.06l-4.08,2c-.51.22-.76.48-.76.76v.12a.86.86,0,0,0,.46.7,5.71,5.71,0,0,1,1,.82,1.82,1.82,0,0,1,.48,1.31v11.28a2.13,2.13,0,0,1-.84,1.65c-.56.47-.84.84-.84,1.09v.17c0,.42.29.63.88.63h6.53q.93,0,.93-.63v-.17c0-.25-.29-.62-.86-1.09a2.11,2.11,0,0,1-.87-1.65v-9.89a5.67,5.67,0,0,1,1.22-3.77,4,4,0,0,1,3.2-1.46c2.76,0,4.23,2.32,4.43,7l.42,8.13a2.08,2.08,0,0,1-.74,1.66c-.52.5-.78.87-.78,1.12v.17q0,.63.93.63h6.15c.61,0,.92-.21.92-.63v-.17c0-.25-.24-.62-.73-1.12a2.38,2.38,0,0,1-.78-1.66ZM94,156.17a6,6,0,0,1-1.2-3.79,4.11,4.11,0,0,1,1.09-3,3.86,3.86,0,0,1,2.87-1.12,3.83,3.83,0,0,1,2.78,1.06,4.22,4.22,0,0,1,1.22,2.86l.12,1.31a4.15,4.15,0,0,1-1,3,3.52,3.52,0,0,1-2.81,1.26A3.73,3.73,0,0,1,94,156.17M105.16,147a10.14,10.14,0,0,0-2.91-6.42,8.85,8.85,0,0,0-6.4-2.34,10.58,10.58,0,0,0-5.58,1.35A3.92,3.92,0,0,0,88.06,143a1.82,1.82,0,0,0,.57,1.41,2.13,2.13,0,0,0,1.5.53,1.78,1.78,0,0,0,1.47-.8,6.45,6.45,0,0,0,.9-1.75,4.35,4.35,0,0,1,1.18-1.75,3.09,3.09,0,0,1,2.17-.8,3.26,3.26,0,0,1,3.08,1.77,15.82,15.82,0,0,1,1.35,5.64l.08.84a7.81,7.81,0,0,0-4.89-1.43A8.85,8.85,0,0,0,90,148.32,5.4,5.4,0,0,0,87.81,153a5.57,5.57,0,0,0,2.17,4.7,9.1,9.1,0,0,0,5.7,1.66c2.78,0,4.74-.9,5.86-2.7a2.54,2.54,0,0,0,.9,2,4.52,4.52,0,0,0,2.47.52c2.27,0,3.41-.35,3.41-1a.64.64,0,0,0-.32-.55,3.11,3.11,0,0,0-.71-.34,1.66,1.66,0,0,1-.8-.65,2.77,2.77,0,0,1-.49-1.45Zm-21.65.13c-.17-3-1-5.24-2.48-6.7a7.54,7.54,0,0,0-5.48-2.19,6.78,6.78,0,0,0-5.89,2.82l0-13.09c0-.85-.45-1.07-1.35-.68l-4.51,2c-.47.23-.71.52-.71.89v.12a.85.85,0,0,0,.44.65,5.63,5.63,0,0,1,.89.83,1.84,1.84,0,0,1,.44,1.26v22.36a1.69,1.69,0,0,1-.42,1.18,8.08,8.08,0,0,1-.85.82,1,1,0,0,0-.42.74v.13c0,.42.3.63.89.63h6.53c.61,0,.92-.21.92-.63v-.13c0-.25-.29-.62-.86-1.12a2.1,2.1,0,0,1-.86-1.62v-9.89a5.62,5.62,0,0,1,1.22-3.77,4,4,0,0,1,3.2-1.46q4.13,0,4.42,6.74l.42,8.34a2.08,2.08,0,0,1-.74,1.66c-.52.5-.78.87-.78,1.12v.17c0,.39.3.59.89.59h6.19c.59,0,.88-.2.88-.59v-.17a2,2,0,0,0-.71-1.16,2.63,2.63,0,0,1-.8-1.66Zm-26.3,9.26a11.73,11.73,0,0,0,3.69-7.16,1,1,0,0,0-.26-.9.83.83,0,0,0-.8-.21,1.2,1.2,0,0,0-.75.52,12.77,12.77,0,0,1-3.42,4.3,8.05,8.05,0,0,1-5.34,1.85q-4.17,0-7.37-4a15.73,15.73,0,0,1-3.21-10.13,10.8,10.8,0,0,1,2.3-7.14,7,7,0,0,1,5.54-2.75,6.41,6.41,0,0,1,3.3.82,6.76,6.76,0,0,1,2.24,2c.54.8,1,1.59,1.51,2.38a10.06,10.06,0,0,0,1.54,2,2.63,2.63,0,0,0,1.9.82,2.38,2.38,0,0,0,1.76-.63,2.25,2.25,0,0,0,.64-1.69c0-1.85-1.17-3.63-3.5-5.32a13.62,13.62,0,0,0-8.25-2.55,13.13,13.13,0,0,0-10.07,4.21,15.21,15.21,0,0,0-3.92,10.78,15.91,15.91,0,0,0,4.32,10.89q4.32,4.81,10,4.82a11.46,11.46,0,0,0,8.19-2.91"/></svg>